# xmcd
#
# Track frame offsets: 
#        150
#        15543
#        38463
#        55258
#        73289
#        97720
#        118494
#        132272
#        156400
#        171423
#        190793
#        213436
#        231521
#        255845
#
# Disc length: 3662 seconds
#
# Revision: 0
# Processed by: cddbd v1.5.1PL2 Copyright (c) Steve Scherf et al.
# Submitted via: ExactAudioCopy v0.95b4
#
DISCID=c20e4c0e
DTITLE=Gravy - Gravy
DYEAR=2005
DGENRE=Alt. Rock
TTITLE0=Good Country Home
TTITLE1=Can't Get No Better
TTITLE2=Heavy Load
TTITLE3=Keeping It Real
TTITLE4=London Homesick Blues
TTITLE5=Tequila Please
TTITLE6=Feed My Monkey
TTITLE7=Pancho and Lefty
TTITLE8=Highway 40 Blues
TTITLE9=Esther
TTITLE10=L.A. Freeway
TTITLE11=Easy Street
TTITLE12=Shine
TTITLE13=Honky Tonk Angel
EXTD=
EXTT0=
EXTT1=
EXTT2=
EXTT3=
EXTT4=
EXTT5=
EXTT6=
EXTT7=
EXTT8=
EXTT9=
EXTT10=
EXTT11=
EXTT12=
EXTT13=
PLAYORDER=
